<svg width="344" height="389" viewBox="0 0 344 389" fill="none" xmlns="http://www.w3.org/2000/svg">
<path d="M241.282 279.109C263.912 272.19 280.726 258.39 291.725 237.709C302.724 217.028 304.765 195.374 297.848 172.749C290.93 150.123 277.13 133.313 256.447 122.318C235.763 111.323 214.107 109.285 191.477 116.203C168.847 123.122 152.032 136.922 141.033 157.603C130.035 178.284 127.994 199.938 134.911 222.563C141.829 245.189 155.629 261.999 176.312 272.994C196.995 283.989 218.652 286.027 241.282 279.109ZM230.214 242.907C217.541 246.782 205.492 245.682 194.067 239.609C182.642 233.536 174.993 224.164 171.119 211.493C167.246 198.823 168.346 186.776 174.422 175.352C180.498 163.928 189.872 156.279 202.545 152.405C215.217 148.53 227.266 149.63 238.691 155.703C250.116 161.776 257.766 171.148 261.639 183.819C265.513 196.489 264.412 208.536 258.337 219.96C252.261 231.384 242.887 239.033 230.214 242.907ZM115.818 386.74C105.861 389.784 96.2533 388.846 86.9951 383.924C77.7369 379.003 71.586 371.564 68.5424 361.609L2.13559 144.402C-0.908055 134.447 0.0317772 124.841 4.95508 115.583C9.87839 106.326 17.3186 100.175 27.2759 97.1312L84.3036 79.6961L106.728 33.2553L215.352 0.0455232L259.913 26.007L316.94 8.57185C326.898 5.52762 336.505 6.46626 345.764 11.3878C355.022 16.3093 361.173 23.7477 364.216 33.7031L430.623 250.91C433.667 260.865 432.727 270.471 427.804 279.729C422.88 288.986 415.44 295.137 405.483 298.181L115.818 386.74ZM104.75 350.539L394.415 261.98L328.008 44.773L254.687 67.1896L210.579 41.0897L133.637 64.6133L111.665 110.916L38.3437 133.332L104.75 350.539Z" fill="#8E8E8E" fill-opacity="0.08"/>
</svg>
